<mxfile host="app.diagrams.net" modified="2021-11-29T13:59:01.274Z" agent="5.0 (Windows NT 10.0; Win64; x64) AppleWebKit/537.36 (KHTML, like Gecko) Chrome/96.0.4664.45 Safari/537.36" etag="bX5i2uV7k1_UwX4nHHOR" version="15.8.5" type="github">
  <diagram id="wJYQPsD9jcsWrftzUFGD" name="Page-1">
    <mxGraphModel dx="1178" dy="659" grid="1" gridSize="10" guides="1" tooltips="1" connect="1" arrows="1" fold="1" page="1" pageScale="1" pageWidth="827" pageHeight="1169" math="0" shadow="0">
      <root>
        <mxCell id="0" />
        <mxCell id="1" parent="0" />
        <mxCell id="GjHyXNtXgBFrburk5asW-2" value="" style="endArrow=none;html=1;rounded=0;strokeWidth=3;" edge="1" parent="1">
          <mxGeometry width="50" height="50" relative="1" as="geometry">
            <mxPoint x="120" y="574.68" as="sourcePoint" />
            <mxPoint x="120" y="534.68" as="targetPoint" />
          </mxGeometry>
        </mxCell>
        <mxCell id="GjHyXNtXgBFrburk5asW-3" value="" style="endArrow=none;html=1;rounded=0;strokeWidth=3;" edge="1" parent="1">
          <mxGeometry width="50" height="50" relative="1" as="geometry">
            <mxPoint x="40" y="554.68" as="sourcePoint" />
            <mxPoint x="620" y="554.68" as="targetPoint" />
          </mxGeometry>
        </mxCell>
        <mxCell id="GjHyXNtXgBFrburk5asW-4" value="" style="endArrow=none;html=1;rounded=0;strokeWidth=3;" edge="1" parent="1">
          <mxGeometry width="50" height="50" relative="1" as="geometry">
            <mxPoint x="520" y="574.68" as="sourcePoint" />
            <mxPoint x="520" y="534.68" as="targetPoint" />
          </mxGeometry>
        </mxCell>
        <mxCell id="GjHyXNtXgBFrburk5asW-6" value="&lt;font style=&quot;font-size: 15px&quot;&gt;0&lt;/font&gt;" style="text;html=1;align=center;verticalAlign=middle;resizable=0;points=[];autosize=1;strokeColor=none;fillColor=none;" vertex="1" parent="1">
          <mxGeometry x="110" y="574.68" width="20" height="20" as="geometry" />
        </mxCell>
        <mxCell id="GjHyXNtXgBFrburk5asW-7" value="10&amp;nbsp; &amp;nbsp;" style="text;html=1;align=center;verticalAlign=middle;resizable=0;points=[];autosize=1;strokeColor=none;fillColor=none;fontSize=15;" vertex="1" parent="1">
          <mxGeometry x="505" y="574.68" width="40" height="20" as="geometry" />
        </mxCell>
        <mxCell id="GjHyXNtXgBFrburk5asW-8" value="" style="endArrow=none;html=1;rounded=0;fontSize=15;strokeWidth=3;fillColor=#fff2cc;strokeColor=#d6b656;" edge="1" parent="1">
          <mxGeometry width="50" height="50" relative="1" as="geometry">
            <mxPoint x="80" y="360" as="sourcePoint" />
            <mxPoint x="120" y="360" as="targetPoint" />
          </mxGeometry>
        </mxCell>
        <mxCell id="GjHyXNtXgBFrburk5asW-9" value="" style="endArrow=none;html=1;rounded=0;fontSize=15;strokeWidth=3;fillColor=#f8cecc;strokeColor=#b85450;" edge="1" parent="1">
          <mxGeometry width="50" height="50" relative="1" as="geometry">
            <mxPoint x="80" y="400" as="sourcePoint" />
            <mxPoint x="120" y="400" as="targetPoint" />
          </mxGeometry>
        </mxCell>
        <mxCell id="GjHyXNtXgBFrburk5asW-10" value="actual performance of&amp;nbsp; A" style="text;html=1;align=center;verticalAlign=middle;resizable=0;points=[];autosize=1;strokeColor=none;fillColor=none;fontSize=15;" vertex="1" parent="1">
          <mxGeometry x="120" y="350" width="180" height="20" as="geometry" />
        </mxCell>
        <mxCell id="GjHyXNtXgBFrburk5asW-11" value="actual performance of&amp;nbsp; B" style="text;html=1;align=center;verticalAlign=middle;resizable=0;points=[];autosize=1;strokeColor=none;fillColor=none;fontSize=15;" vertex="1" parent="1">
          <mxGeometry x="120" y="390" width="180" height="20" as="geometry" />
        </mxCell>
        <mxCell id="GjHyXNtXgBFrburk5asW-12" value="" style="endArrow=none;html=1;rounded=0;fontSize=15;strokeWidth=3;fillColor=#fff2cc;strokeColor=#d6b656;" edge="1" parent="1">
          <mxGeometry width="50" height="50" relative="1" as="geometry">
            <mxPoint x="440" y="534.68" as="sourcePoint" />
            <mxPoint x="440" y="574.68" as="targetPoint" />
          </mxGeometry>
        </mxCell>
        <mxCell id="GjHyXNtXgBFrburk5asW-13" value="" style="endArrow=none;html=1;rounded=0;fontSize=15;strokeWidth=3;fillColor=#f8cecc;strokeColor=#b85450;" edge="1" parent="1">
          <mxGeometry width="50" height="50" relative="1" as="geometry">
            <mxPoint x="480" y="574.68" as="sourcePoint" />
            <mxPoint x="480" y="534.68" as="targetPoint" />
          </mxGeometry>
        </mxCell>
        <mxCell id="GjHyXNtXgBFrburk5asW-14" value="" style="endArrow=none;dashed=1;html=1;rounded=0;fontSize=15;strokeWidth=3;fillColor=#fff2cc;strokeColor=#d6b656;" edge="1" parent="1">
          <mxGeometry width="50" height="50" relative="1" as="geometry">
            <mxPoint x="380" y="360" as="sourcePoint" />
            <mxPoint x="420" y="360" as="targetPoint" />
          </mxGeometry>
        </mxCell>
        <mxCell id="GjHyXNtXgBFrburk5asW-16" value="" style="endArrow=none;dashed=1;html=1;rounded=0;fontSize=15;strokeWidth=3;fillColor=#f8cecc;strokeColor=#b85450;" edge="1" parent="1">
          <mxGeometry width="50" height="50" relative="1" as="geometry">
            <mxPoint x="380" y="400" as="sourcePoint" />
            <mxPoint x="420" y="400" as="targetPoint" />
          </mxGeometry>
        </mxCell>
        <mxCell id="GjHyXNtXgBFrburk5asW-17" value="predicted performance of B" style="text;html=1;align=center;verticalAlign=middle;resizable=0;points=[];autosize=1;strokeColor=none;fillColor=none;fontSize=15;" vertex="1" parent="1">
          <mxGeometry x="420" y="390" width="200" height="20" as="geometry" />
        </mxCell>
        <mxCell id="GjHyXNtXgBFrburk5asW-18" value="" style="endArrow=none;dashed=1;html=1;rounded=0;fontSize=15;strokeWidth=3;fillColor=#fff2cc;strokeColor=#d6b656;" edge="1" parent="1">
          <mxGeometry width="50" height="50" relative="1" as="geometry">
            <mxPoint x="200" y="574.68" as="sourcePoint" />
            <mxPoint x="200" y="534.68" as="targetPoint" />
          </mxGeometry>
        </mxCell>
        <mxCell id="GjHyXNtXgBFrburk5asW-19" value="" style="endArrow=none;dashed=1;html=1;rounded=0;fontSize=15;strokeWidth=3;fillColor=#f8cecc;strokeColor=#b85450;" edge="1" parent="1">
          <mxGeometry width="50" height="50" relative="1" as="geometry">
            <mxPoint x="250" y="574.68" as="sourcePoint" />
            <mxPoint x="250" y="534.68" as="targetPoint" />
          </mxGeometry>
        </mxCell>
        <mxCell id="GjHyXNtXgBFrburk5asW-20" value="" style="endArrow=none;html=1;rounded=0;strokeWidth=3;" edge="1" parent="1">
          <mxGeometry width="50" height="50" relative="1" as="geometry">
            <mxPoint x="120" y="771.87" as="sourcePoint" />
            <mxPoint x="120" y="731.87" as="targetPoint" />
          </mxGeometry>
        </mxCell>
        <mxCell id="GjHyXNtXgBFrburk5asW-21" value="" style="endArrow=none;html=1;rounded=0;strokeWidth=3;" edge="1" parent="1">
          <mxGeometry width="50" height="50" relative="1" as="geometry">
            <mxPoint x="40" y="750" as="sourcePoint" />
            <mxPoint x="620" y="750" as="targetPoint" />
          </mxGeometry>
        </mxCell>
        <mxCell id="GjHyXNtXgBFrburk5asW-22" value="" style="endArrow=none;html=1;rounded=0;strokeWidth=3;" edge="1" parent="1">
          <mxGeometry width="50" height="50" relative="1" as="geometry">
            <mxPoint x="520" y="771.87" as="sourcePoint" />
            <mxPoint x="520" y="731.87" as="targetPoint" />
          </mxGeometry>
        </mxCell>
        <mxCell id="GjHyXNtXgBFrburk5asW-23" value="&lt;font style=&quot;font-size: 15px&quot;&gt;0&lt;/font&gt;" style="text;html=1;align=center;verticalAlign=middle;resizable=0;points=[];autosize=1;strokeColor=none;fillColor=none;" vertex="1" parent="1">
          <mxGeometry x="110" y="771.87" width="20" height="20" as="geometry" />
        </mxCell>
        <mxCell id="GjHyXNtXgBFrburk5asW-24" value="10" style="text;html=1;align=center;verticalAlign=middle;resizable=0;points=[];autosize=1;strokeColor=none;fillColor=none;fontSize=15;" vertex="1" parent="1">
          <mxGeometry x="505" y="771.87" width="30" height="20" as="geometry" />
        </mxCell>
        <mxCell id="GjHyXNtXgBFrburk5asW-25" value="" style="endArrow=none;html=1;rounded=0;fontSize=15;strokeWidth=3;fillColor=#fff2cc;strokeColor=#d6b656;" edge="1" parent="1">
          <mxGeometry width="50" height="50" relative="1" as="geometry">
            <mxPoint x="440" y="731.87" as="sourcePoint" />
            <mxPoint x="440" y="771.87" as="targetPoint" />
          </mxGeometry>
        </mxCell>
        <mxCell id="GjHyXNtXgBFrburk5asW-26" value="" style="endArrow=none;html=1;rounded=0;fontSize=15;strokeWidth=3;fillColor=#f8cecc;strokeColor=#b85450;" edge="1" parent="1">
          <mxGeometry width="50" height="50" relative="1" as="geometry">
            <mxPoint x="480" y="771.87" as="sourcePoint" />
            <mxPoint x="480" y="731.87" as="targetPoint" />
          </mxGeometry>
        </mxCell>
        <mxCell id="GjHyXNtXgBFrburk5asW-27" value="" style="endArrow=none;dashed=1;html=1;rounded=0;fontSize=15;strokeWidth=3;fillColor=#fff2cc;strokeColor=#d6b656;" edge="1" parent="1">
          <mxGeometry width="50" height="50" relative="1" as="geometry">
            <mxPoint x="280" y="771.87" as="sourcePoint" />
            <mxPoint x="280" y="731.87" as="targetPoint" />
          </mxGeometry>
        </mxCell>
        <mxCell id="GjHyXNtXgBFrburk5asW-28" value="" style="endArrow=none;dashed=1;html=1;rounded=0;fontSize=15;strokeWidth=3;fillColor=#f8cecc;strokeColor=#b85450;" edge="1" parent="1">
          <mxGeometry width="50" height="50" relative="1" as="geometry">
            <mxPoint x="320.05999999999995" y="771.87" as="sourcePoint" />
            <mxPoint x="320.05999999999995" y="731.87" as="targetPoint" />
            <Array as="points">
              <mxPoint x="320.03" y="759.37" />
            </Array>
          </mxGeometry>
        </mxCell>
        <mxCell id="GjHyXNtXgBFrburk5asW-29" value="" style="shape=curlyBracket;whiteSpace=wrap;html=1;rounded=1;fontSize=15;rotation=-90;fillColor=#fff2cc;strokeColor=#d6b656;" vertex="1" parent="1">
          <mxGeometry x="309.07" y="462.18" width="22.5" height="245" as="geometry" />
        </mxCell>
        <mxCell id="GjHyXNtXgBFrburk5asW-30" value="&lt;span style=&quot;color: rgb(214 , 182 , 86)&quot;&gt;Difference 6&lt;/span&gt;" style="text;html=1;align=center;verticalAlign=middle;resizable=0;points=[];autosize=1;strokeColor=none;fillColor=none;fontSize=15;" vertex="1" parent="1">
          <mxGeometry x="270" y="614.68" width="100" height="20" as="geometry" />
        </mxCell>
        <mxCell id="GjHyXNtXgBFrburk5asW-32" value="" style="shape=curlyBracket;whiteSpace=wrap;html=1;rounded=1;fontSize=15;rotation=-90;fillColor=#fff2cc;strokeColor=#d6b656;" vertex="1" parent="1">
          <mxGeometry x="347.73" y="700.08" width="22.5" height="163.59" as="geometry" />
        </mxCell>
        <mxCell id="GjHyXNtXgBFrburk5asW-33" value="&lt;span style=&quot;color: rgb(214 , 182 , 86)&quot;&gt;Difference 4&lt;/span&gt;" style="text;html=1;align=center;verticalAlign=middle;resizable=0;points=[];autosize=1;strokeColor=none;fillColor=none;fontSize=15;" vertex="1" parent="1">
          <mxGeometry x="307.19" y="791.87" width="100" height="20" as="geometry" />
        </mxCell>
        <mxCell id="GjHyXNtXgBFrburk5asW-35" value="" style="shape=curlyBracket;whiteSpace=wrap;html=1;rounded=1;fontSize=15;rotation=90;fillColor=#f8cecc;strokeColor=#b85450;" vertex="1" parent="1">
          <mxGeometry x="355.32" y="410" width="20" height="230.63" as="geometry" />
        </mxCell>
        <mxCell id="GjHyXNtXgBFrburk5asW-36" value="Difference 6" style="text;html=1;align=center;verticalAlign=middle;resizable=0;points=[];autosize=1;strokeColor=none;fillColor=none;fontSize=15;fontColor=#B85450;" vertex="1" parent="1">
          <mxGeometry x="310" y="484.68" width="100" height="20" as="geometry" />
        </mxCell>
        <mxCell id="GjHyXNtXgBFrburk5asW-41" value="" style="shape=curlyBracket;whiteSpace=wrap;html=1;rounded=1;fontSize=15;rotation=90;fillColor=#f8cecc;strokeColor=#b85450;" vertex="1" parent="1">
          <mxGeometry x="388.14" y="634.68" width="20" height="165" as="geometry" />
        </mxCell>
        <mxCell id="GjHyXNtXgBFrburk5asW-42" value="Difference 4" style="text;html=1;align=center;verticalAlign=middle;resizable=0;points=[];autosize=1;strokeColor=none;fillColor=none;fontSize=15;fontColor=#B85450;" vertex="1" parent="1">
          <mxGeometry x="360.32" y="691.87" width="100" height="20" as="geometry" />
        </mxCell>
        <mxCell id="GjHyXNtXgBFrburk5asW-43" value="Model 1" style="text;html=1;align=center;verticalAlign=middle;resizable=0;points=[];autosize=1;strokeColor=none;fillColor=none;fontSize=15;fontColor=#050202;" vertex="1" parent="1">
          <mxGeometry x="40" y="462.18" width="70" height="20" as="geometry" />
        </mxCell>
        <mxCell id="GjHyXNtXgBFrburk5asW-44" value="Model 2" style="text;html=1;align=center;verticalAlign=middle;resizable=0;points=[];autosize=1;strokeColor=none;fillColor=none;fontSize=15;fontColor=#050202;" vertex="1" parent="1">
          <mxGeometry x="40" y="671.87" width="70" height="20" as="geometry" />
        </mxCell>
        <mxCell id="GjHyXNtXgBFrburk5asW-45" value="predicted performance of A" style="text;html=1;align=center;verticalAlign=middle;resizable=0;points=[];autosize=1;strokeColor=none;fillColor=none;fontSize=15;fontColor=#050202;" vertex="1" parent="1">
          <mxGeometry x="420" y="350" width="200" height="20" as="geometry" />
        </mxCell>
      </root>
    </mxGraphModel>
  </diagram>
</mxfile>
